HIERARCHY
ROOT joint_Root
{
	OFFSET 0.0 0.0 0.0
	CHANNELS 6 Xposition Yposition Zposition Zrotation Xrotation Yrotation 
	JOINT Hips
	{
		OFFSET 4.5925 91.4895 -427.239
		CHANNELS 6 Xposition Yposition Zposition Zrotation Xrotation Yrotation 
		JOINT Spine
		{
			OFFSET 15.7357 0.0 0.0
			CHANNELS 6 Xposition Yposition Zposition Zrotation Xrotation Yrotation 
			JOINT Chest
			{
				OFFSET 8.98455 -0.406207 0.0
				CHANNELS 6 Xposition Yposition Zposition Zrotation Xrotation Yrotation 
				JOINT Neck
				{
					OFFSET 16.3773 0.0 0.0
					CHANNELS 6 Xposition Yposition Zposition Zrotation Xrotation Yrotation 
					JOINT Head
					{
						OFFSET 6.45672 0.0 0.0
						CHANNELS 6 Xposition Yposition Zposition Zrotation Xrotation Yrotation 
						End Site
						{
							OFFSET 0.0 0.0 0.0
						}
					}
				}
				JOINT Shoulder_L
				{
					OFFSET 12.9942 -0.242716 4.98039
					CHANNELS 6 Xposition Yposition Zposition Zrotation Xrotation Yrotation 
					JOINT UpperArm_L
					{
						OFFSET 5.34809 0.0 0.0
						CHANNELS 6 Xposition Yposition Zposition Zrotation Xrotation Yrotation 
						JOINT LowerArm_L
						{
							OFFSET 24.3286 1.87007e-05 0.0
							CHANNELS 6 Xposition Yposition Zposition Zrotation Xrotation Yrotation 
							JOINT Hand_L
							{
								OFFSET 22.2916 0.0 0.0
								CHANNELS 6 Xposition Yposition Zposition Zrotation Xrotation Yrotation 
								End Site
								{
									OFFSET 0.0 0.0 0.0
								}
							}
						}
					}
				}
				JOINT Shoulder_R
				{
					OFFSET 12.9945 -0.242716 -4.98039
					CHANNELS 6 Xposition Yposition Zposition Zrotation Xrotation Yrotation 
					JOINT UpperArm_R
					{
						OFFSET -5.34813 0.0 0.0
						CHANNELS 6 Xposition Yposition Zposition Zrotation Xrotation Yrotation 
						JOINT LowerArm_R
						{
							OFFSET -24.3289 0.000322201 0.0
							CHANNELS 6 Xposition Yposition Zposition Zrotation Xrotation Yrotation 
							JOINT Hand_R
							{
								OFFSET -22.2915 -0.000108084 0.0
								CHANNELS 6 Xposition Yposition Zposition Zrotation Xrotation Yrotation 
								End Site
								{
									OFFSET 0.0 0.0 0.0
								}
							}
						}
					}
				}
			}
		}
		JOINT UpperLeg_L
		{
			OFFSET -2.19248 -6.46944 0.0
			CHANNELS 6 Xposition Yposition Zposition Zrotation Xrotation Yrotation 
			JOINT LowerLeg_L
			{
				OFFSET 39.0811 0.0 -1.23785e-05
				CHANNELS 6 Xposition Yposition Zposition Zrotation Xrotation Yrotation 
				JOINT Foot_L
				{
					OFFSET 40.9854 0.0 -1.26872e-05
					CHANNELS 6 Xposition Yposition Zposition Zrotation Xrotation Yrotation 
					JOINT Toes_L
					{
						OFFSET 11.7543 0.0 0.0
						CHANNELS 6 Xposition Yposition Zposition Zrotation Xrotation Yrotation 
						End Site
						{
							OFFSET 0.0 0.0 0.0
						}
					}
				}
			}
		}
		JOINT UpperLeg_R
		{
			OFFSET -2.19251 6.46944 0.0
			CHANNELS 6 Xposition Yposition Zposition Zrotation Xrotation Yrotation 
			JOINT LowerLeg_R
			{
				OFFSET -39.0811 -0.00228153 -0.0401928
				CHANNELS 6 Xposition Yposition Zposition Zrotation Xrotation Yrotation 
				JOINT Foot_R
				{
					OFFSET -40.9854 0.0 0.0
					CHANNELS 6 Xposition Yposition Zposition Zrotation Xrotation Yrotation 
					JOINT Toes_R
					{
						OFFSET -11.7543 0.0 0.0
						CHANNELS 6 Xposition Yposition Zposition Zrotation Xrotation Yrotation 
						End Site
						{
							OFFSET 0.0 0.0 0.0
						}
					}
				}
			}
		}
	}
}
MOTION
Frames:	6
Frame Time:	0.0333333
0.000000 0.000000 0.000000 0.000000 0.000000 -0.000000 -0.937546 90.842000 -5.930760 89.351400 -2.451610 8.344880 15.735700 0.000005 -0.000001 88.777700 76.780700 -89.035300 8.984550 -0.406207 -0.000000 18.665900 -0.577296 -0.421588 16.377300 -0.000001 -0.000001 3.718590 -4.419410 2.880170 6.456720 -0.000001 -0.000000 -6.157820 -2.925440 0.147713 12.994200 -0.242716 4.980390 -91.025400 5.637150 -79.673200 5.348090 -0.000007 -0.000001 -53.956100 36.000700 -34.429900 24.328600 0.000019 0.000005 8.970770 19.934400 -24.844600 22.291600 -0.000001 0.000005 10.311000 5.275560 0.747505 12.994500 -0.242716 -4.980390 89.485300 9.802240 -86.979700 -5.348130 -0.000001 -0.000004 -54.834800 32.262900 -29.095700 -24.328900 0.000322 -0.000009 2.373650 4.502280 -27.847500 -22.291500 -0.000108 -0.000004 15.836100 5.455120 -4.823510 -2.192480 -6.469440 -0.000000 -175.318000 -11.162300 -6.739130 39.081100 -0.000007 -0.000012 -0.155918 0.247624 32.197100 40.985400 -0.000006 -0.000013 0.131322 5.264870 -67.015600 11.754300 -0.000000 0.000003 -0.000085 -0.000896 -16.612100 -2.192510 6.469440 -0.000001 176.660000 20.533600 174.380000 -39.081100 -0.002282 -0.040193 -0.131991 0.218869 31.721500 -40.985400 0.000008 0.000006 4.675840 12.064700 -68.037900 -11.754300 -0.000006 -0.000006 -0.003432 -0.045398 -18.419500
0.000000 0.000000 0.000000 0.000000 0.000000 -0.000000 -0.946541 90.840900 -5.949480 89.333300 -2.453680 8.364520 15.735700 0.000005 -0.000001 88.754900 76.792500 -89.030300 8.984550 -0.406207 -0.000000 18.642100 -0.588758 -0.455589 16.377300 -0.000001 -0.000001 3.809380 -4.406320 2.994220 6.456720 -0.000001 -0.000000 -6.216860 -2.839220 0.065459 12.994200 -0.242716 4.980390 -91.009600 5.447580 -79.484000 5.348090 -0.000007 -0.000001 -54.446900 35.373600 -34.054000 24.328600 0.000019 0.000005 9.663360 20.326100 -26.113500 22.291600 -0.000001 0.000005 10.671400 5.274000 0.789659 12.994500 -0.242716 -4.980390 89.472500 9.708000 -86.875000 -5.348130 -0.000001 -0.000004 -55.013000 31.852600 -29.020600 -24.328900 0.000322 -0.000009 2.469250 4.438050 -29.140900 -22.291500 -0.000108 -0.000004 16.085400 5.454190 -4.790230 -2.192480 -6.469440 -0.000000 -175.281000 -11.133500 -6.742080 39.081100 -0.000007 -0.000012 -0.159412 0.253057 32.209000 40.985400 -0.000006 -0.000013 0.114581 5.269960 -67.002400 11.754300 -0.000000 0.000003 -0.000091 -0.000953 -16.614200 -2.192510 6.469440 -0.000001 176.682000 20.538800 174.385000 -39.081100 -0.002282 -0.040193 -0.131583 0.218221 31.720100 -40.985400 0.000008 0.000006 4.693790 12.069500 -68.025500 -11.754300 -0.000006 -0.000006 -0.003216 -0.043025 -18.322900
0.000000 0.000000 0.000000 0.000000 0.000000 -0.000000 -0.955687 90.837900 -5.961930 89.311200 -2.463450 8.354760 15.735700 0.000005 -0.000001 88.841700 76.824600 -89.120200 8.984550 -0.406207 -0.000000 18.578700 -0.548472 -0.468591 16.377300 -0.000001 -0.000001 3.981840 -4.343310 3.041680 6.456720 -0.000001 -0.000000 -6.254730 -2.824650 0.074478 12.994200 -0.242716 4.980390 -90.983600 5.223760 -79.321400 5.348090 -0.000007 -0.000001 -55.081300 34.585700 -33.680600 24.328600 0.000019 0.000005 10.324800 20.459600 -27.527600 22.291600 -0.000001 0.000005 10.886600 5.276480 0.722558 12.994500 -0.242716 -4.980390 89.449800 9.617110 -86.710300 -5.348130 -0.000001 -0.000004 -55.166500 31.357800 -28.922300 -24.328900 0.000322 -0.000009 2.572540 4.365650 -30.561200 -22.291500 -0.000108 -0.000004 16.333700 5.455500 -4.837520 -2.192480 -6.469440 -0.000000 -175.266000 -11.161200 -6.777350 39.081100 -0.000007 -0.000012 -0.157963 0.250444 32.241200 40.985400 -0.000006 -0.000013 0.115674 5.240260 -67.007000 11.754300 -0.000000 0.000003 -0.000087 -0.000913 -16.612700 -2.192510 6.469440 -0.000001 176.708000 20.571400 174.369000 -39.081100 -0.002282 -0.040193 -0.132651 0.219942 31.721000 -40.985400 0.000008 0.000006 4.691270 12.112500 -68.018500 -11.754300 -0.000006 -0.000006 -0.003390 -0.044935 -18.400700
0.000000 0.000000 0.000000 0.000000 0.000000 -0.000000 -0.961638 90.845300 -5.984640 89.291300 -2.462190 8.337760 15.735700 0.000005 -0.000001 88.926400 76.867500 -89.204100 8.984550 -0.406207 -0.000000 18.493700 -0.508471 -0.473734 16.377300 -0.000001 -0.000001 4.147310 -4.309660 3.133560 6.456720 -0.000001 -0.000000 -6.205220 -2.795210 0.069009 12.994200 -0.242716 4.980390 -90.962800 5.048980 -79.189300 5.348090 -0.000007 -0.000001 -55.547800 33.790200 -33.371700 24.328600 0.000019 0.000005 11.173800 20.643800 -29.260700 22.291600 -0.000001 0.000005 11.159900 5.276010 0.735084 12.994500 -0.242716 -4.980390 89.439400 9.512730 -86.611800 -5.348130 -0.000001 -0.000004 -55.274200 30.805100 -28.799500 -24.328900 0.000322 -0.000009 2.734130 4.371220 -32.080100 -22.291500 -0.000108 -0.000004 16.655000 5.454830 -4.813420 -2.192480 -6.469440 -0.000000 -175.243000 -11.122700 -6.800100 39.081100 -0.000007 -0.000012 -0.158422 0.251440 32.213700 40.985400 -0.000006 -0.000013 0.105598 5.259700 -66.974200 11.754300 -0.000000 0.000003 -0.000081 -0.000859 -16.610700 -2.192510 6.469440 -0.000001 176.743000 20.619200 174.361000 -39.081100 -0.002282 -0.040193 -0.129869 0.215829 31.675000 -40.985400 0.000008 0.000006 4.704140 12.130400 -67.984700 -11.754300 -0.000006 -0.000006 -0.003356 -0.044572 -18.385900
0.000000 0.000000 0.000000 0.000000 0.000000 -0.000000 -0.956532 90.846500 -5.996460 89.299200 -2.426840 8.343540 15.735700 0.000005 -0.000001 88.993000 76.889900 -89.279000 8.984550 -0.406207 -0.000000 18.449400 -0.478498 -0.495701 16.377300 -0.000001 -0.000001 4.284320 -4.293850 3.225040 6.456720 -0.000001 -0.000000 -6.256050 -2.831590 0.114564 12.994200 -0.242716 4.980390 -90.939600 4.883160 -79.095100 5.348090 -0.000007 -0.000001 -55.946700 32.887300 -33.186300 24.328600 0.000019 0.000005 12.438400 21.274400 -31.295100 22.291600 -0.000001 0.000005 11.863400 5.270630 0.881247 12.994500 -0.242716 -4.980390 89.429000 9.425840 -86.517600 -5.348130 -0.000001 -0.000004 -55.341000 30.140000 -28.719600 -24.328900 0.000322 -0.000009 3.031020 4.546900 -33.749600 -22.291500 -0.000108 -0.000004 17.147100 5.452430 -4.726620 -2.192480 -6.469440 -0.000000 -175.263000 -11.108400 -6.796790 39.081100 -0.000007 -0.000012 -0.157397 0.249893 32.205400 40.985400 -0.000006 -0.000013 0.113176 5.253740 -66.966800 11.754300 -0.000000 0.000003 -0.000084 -0.000889 -16.611800 -2.192510 6.469440 -0.000001 176.720000 20.684900 174.364000 -39.081100 -0.002282 -0.040193 -0.131129 0.217923 31.668800 -40.985400 0.000008 0.000006 4.678690 12.166000 -67.966400 -11.754300 -0.000006 -0.000006 -0.003289 -0.043831 -18.355700
0.000000 0.000000 0.000000 0.000000 0.000000 -0.000000 -0.949621 90.844900 -6.016600 89.292000 -2.377860 8.362480 15.735700 0.000005 -0.000001 89.039800 76.910600 -89.326300 8.984550 -0.406207 -0.000000 18.408400 -0.456766 -0.500190 16.377300 -0.000001 -0.000001 4.406230 -4.342370 3.296360 6.456720 -0.000001 -0.000000 -6.348830 -2.918250 0.131368 12.994200 -0.242716 4.980390 -90.918300 4.733870 -79.009100 5.348090 -0.000007 -0.000001 -56.213200 31.956300 -33.111600 24.328600 0.000019 0.000005 13.470000 21.347200 -33.344700 22.291600 -0.000001 0.000005 12.458500 5.267770 0.958325 12.994500 -0.242716 -4.980390 89.420200 9.290050 -86.413000 -5.348130 -0.000001 -0.000004 -55.512500 29.321600 -28.617100 -24.328900 0.000322 -0.000009 3.439640 4.823780 -35.563900 -22.291500 -0.000108 -0.000004 17.707700 5.451030 -4.676510 -2.192480 -6.469440 -0.000000 -175.272000 -11.068400 -6.812550 39.081100 -0.000007 -0.000012 -0.153203 0.243070 32.222800 40.985400 -0.000006 -0.000013 0.127626 5.265120 -66.955400 11.754300 -0.000000 0.000003 -0.000088 -0.000920 -16.612900 -2.192510 6.469440 -0.000001 176.705000 20.702800 174.381000 -39.081100 -0.002282 -0.040193 -0.131238 0.218081 31.671000 -40.985400 0.000008 0.000006 4.660170 12.178800 -67.958300 -11.754300 -0.000006 -0.000006 -0.003243 -0.043327 -18.335200
